<svg width="25" height="25" viewBox="0 0 25 25" fill="none" xmlns="http://www.w3.org/2000/svg">
<path d="M22.5 11.2148H18.33L21.57 7.97484L20.16 6.55484L15.5 11.2148H13.5V9.21484L18.16 4.55484L16.74 3.14484L13.5 6.38484V2.21484H11.5V6.38484L8.26 3.14484L6.84 4.55484L11.5 9.21484V11.2148H9.5L4.84 6.55484L3.43 7.97484L6.67 11.2148H2.5V13.2148H6.67L3.43 16.4548L4.84 17.8748L9.5 13.2148H11.5V15.2148L6.84 19.8748L8.26 21.2848L11.5 18.0448V22.2148H13.5V18.0448L16.74 21.2848L18.16 19.8748L13.5 15.2148V13.2148H15.5L20.16 17.8748L21.57 16.4548L18.33 13.2148H22.5V11.2148Z" fill="white"/>
</svg>
