<svg width="36" height="34" viewBox="0 0 36 34" fill="none" xmlns="http://www.w3.org/2000/svg">
<path d="M8.72947 33.2606V10.9588H1.32326V33.2606H8.73024H8.72947ZM5.02791 7.91434C7.61007 7.91434 9.21763 6.20182 9.21763 4.06166C9.1693 1.87273 7.61007 0.208008 5.07702 0.208008C2.54223 0.208008 0.886719 1.87273 0.886719 4.06146C0.886719 6.20163 2.4937 7.91415 4.97939 7.91415H5.02733L5.02791 7.91434ZM12.8289 33.2606H20.2345V20.8076C20.2345 20.1419 20.2829 19.4745 20.4785 18.9991C21.0137 17.6668 22.2322 16.2877 24.2787 16.2877C26.9579 16.2877 28.0303 18.3326 28.0303 21.331V33.2606H35.4357V20.4734C35.4357 13.6235 31.7825 10.4359 26.9099 10.4359C22.9151 10.4359 21.1606 12.6707 20.1858 14.1928H20.2351V10.9595H12.8293C12.926 13.0517 12.8287 33.2614 12.8287 33.2614L12.8289 33.2606Z" fill="#ED1C1C"/>
</svg>
