<svg width="25" height="25" viewBox="0 0 25 25" fill="none" xmlns="http://www.w3.org/2000/svg">
<path d="M9.5 13.9648C7.16 13.9648 2.5 15.1348 2.5 17.4648V19.2148H16.5V17.4648C16.5 15.1348 11.84 13.9648 9.5 13.9648ZM4.84 17.2148C5.68 16.6348 7.71 15.9648 9.5 15.9648C11.29 15.9648 13.32 16.6348 14.16 17.2148H4.84ZM9.5 12.2148C11.43 12.2148 13 10.6448 13 8.71484C13 6.78484 11.43 5.21484 9.5 5.21484C7.57 5.21484 6 6.78484 6 8.71484C6 10.6448 7.57 12.2148 9.5 12.2148ZM9.5 7.21484C10.33 7.21484 11 7.88484 11 8.71484C11 9.54484 10.33 10.2148 9.5 10.2148C8.67 10.2148 8 9.54484 8 8.71484C8 7.88484 8.67 7.21484 9.5 7.21484ZM16.54 14.0248C17.7 14.8648 18.5 15.9848 18.5 17.4648V19.2148H22.5V17.4648C22.5 15.4448 19 14.2948 16.54 14.0248ZM15.5 12.2148C17.43 12.2148 19 10.6448 19 8.71484C19 6.78484 17.43 5.21484 15.5 5.21484C14.96 5.21484 14.46 5.34484 14 5.56484C14.63 6.45484 15 7.54484 15 8.71484C15 9.88484 14.63 10.9748 14 11.8648C14.46 12.0848 14.96 12.2148 15.5 12.2148Z" fill="white"/>
</svg>
