<svg width="24" height="25" viewBox="0 0 24 25" fill="none" xmlns="http://www.w3.org/2000/svg">
<path d="M18.92 2.22484C18.72 1.63484 18.16 1.21484 17.5 1.21484H6.5C5.84 1.21484 5.29 1.63484 5.08 2.22484L3 8.21484V16.2148C3 16.7648 3.45 17.2148 4 17.2148H5C5.55 17.2148 6 16.7648 6 16.2148V15.2148H18V16.2148C18 16.7648 18.45 17.2148 19 17.2148H20C20.55 17.2148 21 16.7648 21 16.2148V8.21484L18.92 2.22484ZM6.85 3.21484H17.14L18.22 6.32484H5.77L6.85 3.21484ZM19 13.2148H5V8.21484H19V13.2148Z" fill="white"/>
<path d="M7.5 12.2148C8.32843 12.2148 9 11.5433 9 10.7148C9 9.88642 8.32843 9.21484 7.5 9.21484C6.67157 9.21484 6 9.88642 6 10.7148C6 11.5433 6.67157 12.2148 7.5 12.2148Z" fill="white"/>
<path d="M16.5 12.2148C17.3284 12.2148 18 11.5433 18 10.7148C18 9.88642 17.3284 9.21484 16.5 9.21484C15.6716 9.21484 15 9.88642 15 10.7148C15 11.5433 15.6716 12.2148 16.5 12.2148Z" fill="white"/>
<path d="M7 20.2148H11V18.2148L17 21.2148H13V23.2148L7 20.2148Z" fill="white"/>
</svg>
