<svg width="48" height="36" viewBox="0 0 48 36" fill="none" xmlns="http://www.w3.org/2000/svg">
<path d="M46.8883 4.46C45.3765 5.04719 43.7871 5.45607 42.1594 5.67655C42.9204 5.55882 44.0401 4.32264 44.4858 3.82229C45.1629 3.06755 45.679 2.20595 46.0078 1.28127C46.0078 1.21259 46.0839 1.11448 46.0078 1.06543C45.9694 1.04654 45.9264 1.03664 45.8827 1.03664C45.8391 1.03664 45.7961 1.04654 45.7577 1.06543C43.9903 1.9292 42.1093 2.58846 40.1592 3.02761C40.0912 3.04635 40.0189 3.04803 39.9499 3.03247C39.881 3.01691 39.818 2.98471 39.7678 2.93931C39.616 2.77618 39.4526 2.62215 39.2786 2.4782C38.4832 1.83504 37.5808 1.30865 36.6044 0.918264C35.2863 0.430248 33.8626 0.218899 32.4408 0.300178C31.0612 0.37881 29.7143 0.712763 28.4838 1.28127C27.2721 1.88064 26.2071 2.6949 25.353 3.67513C24.4545 4.68403 23.8058 5.85489 23.4505 7.10894C23.1576 8.3018 23.1244 9.53467 23.3527 10.739C23.3527 10.945 23.3527 10.9744 23.157 10.945C15.406 9.91485 9.04654 7.4327 3.85023 2.10538C3.62194 1.86992 3.50235 1.86992 3.31755 2.10538C1.05639 5.20563 2.15436 10.1111 4.9808 12.5344C5.36129 12.8581 5.75264 13.1721 6.16574 13.4664C4.86983 13.3834 3.60557 13.0664 2.44787 12.5344C2.23045 12.4068 2.11087 12.4755 2.1 12.711C2.06919 13.0374 2.06919 13.3656 2.1 13.692C2.32683 15.2565 3.00998 16.7385 4.0796 17.9865C5.14922 19.2345 6.56692 20.2038 8.18773 20.7951C8.58285 20.9479 8.99455 21.063 9.41615 21.1385C8.21646 21.3517 6.98603 21.3848 5.77438 21.2366C5.51348 21.1876 5.41564 21.3151 5.51348 21.5408C7.11151 25.4651 10.5793 26.662 13.1231 27.3292C13.471 27.3782 13.8189 27.3782 14.2102 27.4567C14.2102 27.4567 14.2102 27.4567 14.145 27.5156C13.3949 28.7518 10.3619 29.5857 8.97044 30.0174C6.43063 30.8407 3.72272 31.1554 1.03465 30.9396C0.610683 30.8807 0.512844 30.8905 0.404135 30.9396C0.295425 30.9887 0.404135 31.0966 0.523715 31.1947C1.06726 31.5184 1.61081 31.803 2.1761 32.0777C3.85897 32.9061 5.6381 33.5641 7.48112 34.0398C17.0258 36.4141 27.7663 34.6677 34.9303 28.2416C40.5614 23.1988 42.5399 16.2429 42.5399 9.27715C42.5399 9.01225 42.8987 8.85528 43.1052 8.71792C44.5299 7.71613 45.7859 6.53303 46.8339 5.20563C47.0155 5.00776 47.1085 4.75582 47.0948 4.49924V4.49924C47.0948 4.35208 47.0949 4.38151 46.8883 4.46Z" fill="#D11818"/>
</svg>
