<svg width="47" height="43" viewBox="0 0 47 43" fill="none" xmlns="http://www.w3.org/2000/svg">
<path d="M15.9836 21.6369C15.9836 17.8339 19.4007 14.7502 23.6171 14.7502C27.8335 14.7502 31.2524 17.8339 31.2524 21.6369C31.2524 25.4398 27.8335 28.5235 23.6171 28.5235C19.4007 28.5235 15.9836 25.4398 15.9836 21.6369ZM11.8561 21.6369C11.8561 27.4956 17.1214 32.2447 23.6171 32.2447C30.1127 32.2447 35.3781 27.4956 35.3781 21.6369C35.3781 15.7782 30.1127 11.029 23.6171 11.029C17.1214 11.029 11.8561 15.7782 11.8561 21.6369ZM33.0952 10.6084C33.095 11.0987 33.256 11.5781 33.5578 11.9859C33.8596 12.3936 34.2887 12.7115 34.7909 12.8994C35.293 13.0872 35.8456 13.1365 36.3788 13.041C36.912 12.9455 37.4019 12.7096 37.7864 12.3631C38.1709 12.0165 38.4329 11.5749 38.5392 11.094C38.6454 10.6132 38.5912 10.1147 38.3834 9.66168C38.1756 9.20863 37.8235 8.82133 37.3716 8.54877C36.9197 8.27621 36.3884 8.13063 35.8448 8.13043H35.8437C35.115 8.13074 34.4163 8.39188 33.901 8.85651C33.3856 9.32113 33.0958 9.95124 33.0952 10.6084V10.6084ZM14.3638 38.4523C12.1307 38.3605 10.917 38.025 10.1104 37.7416C9.04103 37.3661 8.27805 36.9189 7.47585 36.1964C6.67366 35.4738 6.1771 34.7863 5.76262 33.8218C5.44819 33.0946 5.07623 31.9996 4.97472 29.9855C4.86368 27.8079 4.84151 27.1538 4.84151 21.637C4.84151 16.1203 4.86551 15.4679 4.97472 13.2886C5.07641 11.2745 5.45112 10.1816 5.76262 9.45224C6.17893 8.48774 6.67476 7.79957 7.47585 7.07603C8.27695 6.3525 9.0392 5.90462 10.1104 5.53079C10.9166 5.24719 12.1307 4.9117 14.3638 4.82014C16.7781 4.71999 17.5033 4.69999 23.6171 4.69999C29.7308 4.69999 30.4568 4.72164 32.8731 4.82014C35.1062 4.91186 36.3179 5.24984 37.1265 5.53079C38.1959 5.90462 38.9588 6.35349 39.761 7.07603C40.5632 7.79858 41.058 8.48774 41.4743 9.45224C41.7887 10.1794 42.1607 11.2745 42.2622 13.2886C42.3732 15.4679 42.3954 16.1203 42.3954 21.637C42.3954 27.1538 42.3732 27.8061 42.2622 29.9855C42.1605 31.9996 41.7867 33.0943 41.4743 33.8218C41.058 34.7863 40.5621 35.4745 39.761 36.1964C38.9599 36.9183 38.1959 37.3661 37.1265 37.7416C36.3203 38.0252 35.1062 38.3607 32.8731 38.4523C30.4588 38.5524 29.7336 38.5724 23.6171 38.5724C17.5006 38.5724 16.7773 38.5524 14.3638 38.4523V38.4523ZM14.1741 1.10362C11.7359 1.20377 10.0697 1.55249 8.61465 2.06316C7.10774 2.59053 5.83207 3.29803 4.55731 4.44598C3.28256 5.59392 2.50015 6.74633 1.91545 8.10548C1.34926 9.41869 0.962638 10.9206 0.851598 13.1198C0.738727 15.3225 0.712891 16.0267 0.712891 21.6369C0.712891 27.247 0.738727 27.9512 0.851598 30.1539C0.962638 32.3533 1.34926 33.855 1.91545 35.1682C2.50015 36.5266 3.28274 37.6803 4.55731 38.8277C5.83188 39.9752 7.10774 40.6817 8.61465 41.2106C10.0725 41.7212 11.7359 42.0699 14.1741 42.1701C16.6176 42.2703 17.397 42.2952 23.6171 42.2952C29.8371 42.2952 30.6179 42.2719 33.06 42.1701C35.4985 42.0699 37.1635 41.7212 38.6195 41.2106C40.1255 40.6817 41.4021 39.9757 42.6768 38.8277C43.9516 37.6798 44.7324 36.5266 45.3187 35.1682C45.8849 33.855 46.2733 32.3531 46.3825 30.1539C46.4936 27.9496 46.5194 27.247 46.5194 21.6369C46.5194 16.0267 46.4936 15.3225 46.3825 13.1198C46.2715 10.9205 45.8849 9.41786 45.3187 8.10548C44.7324 6.74715 43.9496 5.59574 42.6768 4.44598C41.4041 3.29622 40.1255 2.59053 38.6213 2.06316C37.1635 1.55249 35.4983 1.20212 33.0618 1.10362C30.6197 1.00347 29.8389 0.978516 23.6189 0.978516C17.3989 0.978516 16.6176 1.00182 14.1741 1.10362Z" fill="#C01B1B"/>
</svg>
